<svg xmlns="http://www.w3.org/2000/svg" viewBox="0 0 64 64">
  <defs>
    <linearGradient id="g" x1="0%" y1="0%" x2="100%" y2="100%">
      <stop offset="0%" stop-color="#bbf7d0"/>
      <stop offset="55%" stop-color="#22c55e"/>
      <stop offset="100%" stop-color="#14b8a6"/>
    </linearGradient>
  </defs>
  <rect x="4" y="4" width="56" height="56" rx="16" fill="#020617"/>
  <rect x="6" y="6" width="52" height="52" rx="14" fill="none" stroke="#1e293b" stroke-width="2"/>
  <path d="M21 20h23a3 3 0 0 1 0 6H29v6h11a3 3 0 0 1 0 6H29v6h15a3 3 0 0 1 0 6H21a3 3 0 0 1-3-3V23a3 3 0 0 1 3-3Z" fill="url(#g)"/>
</svg>
